<svg width="32" height="32" viewBox="0 0 32 32" fill="none" xmlns="http://www.w3.org/2000/svg">
<rect x="15" width="1" height="1" fill="#DDA957"/>
<rect x="16" width="1" height="1" fill="#DFA955"/>
<rect x="17" width="1" height="1" fill="#D9A350"/>
<rect x="18" width="1" height="1" fill="#D49749"/>
<rect x="20" width="1" height="1" fill="#D09548"/>
<rect x="21" width="1" height="1" fill="#C58742"/>
<rect x="14" width="1" height="1" fill="#DDA753"/>
<rect x="13" width="1" height="1" fill="#DDA756"/>
<rect x="12" width="1" height="1" fill="#E0AD58"/>
<rect x="11" width="1" height="1" fill="#DEA852"/>
<rect x="19" width="1" height="1" fill="#D69C49"/>
<rect x="19" y="1" width="1" height="1" fill="#EFCB7A"/>
<rect x="12" y="1" width="1" height="1" fill="#EDCA78"/>
<rect x="22" y="1" width="1" height="1" fill="#BF7B3B"/>
<rect x="14" y="1" width="1" height="1" fill="#EECC7F"/>
<rect x="21" y="1" width="1" height="1" fill="#C5843F"/>
<rect x="20" y="1" width="1" height="1" fill="#DCA755"/>
<rect x="10" y="1" width="1" height="1" fill="#E2AA54"/>
<rect x="17" y="1" width="1" height="1" fill="#EECB79"/>
<rect x="11" y="1" width="1" height="1" fill="#EFCC78"/>
<rect x="13" y="1" width="1" height="1" fill="#F0CD7B"/>
<rect x="9" y="1" width="1" height="1" fill="#E0AD53"/>
<rect x="16" y="1" width="1" height="1" fill="#F1CC7B"/>
<rect x="15" y="1" width="1" height="1" fill="#EFCC7A"/>
<rect x="18" y="1" width="1" height="1" fill="#EFCC7A"/>
<rect x="18" y="2" width="1" height="1" fill="#BC7C38"/>
<rect x="15" y="2" width="1" height="1" fill="#F0CE79"/>
<rect x="16" y="2" width="1" height="1" fill="#DAA450"/>
<rect x="10" y="2" width="1" height="1" fill="#EDCA78"/>
<rect x="17" y="2" width="1" height="1" fill="#DAA24F"/>
<rect x="9" y="2" width="1" height="1" fill="#EFCD7A"/>
<rect x="7" y="2" width="1" height="1" fill="#DEA651"/>
<rect x="20" y="2" width="1" height="1" fill="#D8A251"/>
<rect x="13" y="2" width="1" height="1" fill="#F0CB7B"/>
<rect x="25" y="2" width="1" height="1" fill="#D69F4F"/>
<rect x="23" y="2" width="1" height="1" fill="#AE692E"/>
<rect x="21" y="2" width="1" height="1" fill="#D89F4F"/>
<rect x="14" y="2" width="1" height="1" fill="#ECC878"/>
<rect x="24" y="2" width="1" height="1" fill="#D49E4B"/>
<rect x="22" y="2" width="1" height="1" fill="#B57438"/>
<rect x="12" y="2" width="1" height="1" fill="#EECB7B"/>
<rect x="11" y="2" width="1" height="1" fill="#F0CD7D"/>
<rect x="19" y="2" width="1" height="1" fill="#DCA450"/>
<rect x="19" y="3" width="1" height="1" fill="#B87636"/>
<rect x="11" y="3" width="1" height="1" fill="#D6A04C"/>
<rect x="22" y="3" width="1" height="1" fill="#B87638"/>
<rect x="24" y="3" width="1" height="1" fill="#EDCA78"/>
<rect x="14" y="3" width="1" height="1" fill="#EECB79"/>
<rect x="21" y="3" width="1" height="1" fill="#D99F4E"/>
<rect x="23" y="3" width="1" height="1" fill="#CB8C44"/>
<rect x="25" y="3" width="1" height="1" fill="#EAC877"/>
<rect x="26" y="3" width="1" height="1" fill="#DBA753"/>
<rect x="13" y="3" width="1" height="1" fill="#EECB7A"/>
<rect x="20" y="3" width="1" height="1" fill="#BD7A3B"/>
<rect x="7" y="3" width="1" height="1" fill="#EAC776"/>
<rect x="9" y="3" width="1" height="1" fill="#FCD882"/>
<rect x="6" y="3" width="1" height="1" fill="#DAA450"/>
<rect x="17" y="3" width="1" height="1" fill="#C5873D"/>
<rect x="10" y="3" width="1" height="1" fill="#FEDC8B"/>
<rect x="16" y="3" width="1" height="1" fill="#EECC7A"/>
<rect x="15" y="3" width="1" height="1" fill="#F0CD7D"/>
<rect x="12" y="3" width="1" height="1" fill="#D7A04E"/>
<rect x="18" y="3" width="1" height="1" fill="#BF7E3A"/>
<rect x="5" y="4" width="1" height="1" fill="#E4AE55"/>
<rect x="19" y="4" width="1" height="1" fill="#F4D282"/>
<rect x="11" y="4" width="1" height="1" fill="#EDCB7B"/>
<rect x="22" y="4" width="1" height="1" fill="#DAA551"/>
<rect x="24" y="4" width="1" height="1" fill="#EEC978"/>
<rect x="14" y="4" width="1" height="1" fill="#EFCC78"/>
<rect x="21" y="4" width="1" height="1" fill="#BC7938"/>
<rect x="23" y="4" width="1" height="1" fill="#EDCA78"/>
<rect x="25" y="4" width="1" height="1" fill="#EDCA78"/>
<rect x="26" y="4" width="1" height="1" fill="#EFCD7A"/>
<rect x="13" y="4" width="1" height="1" fill="#EBCB78"/>
<rect x="20" y="4" width="1" height="1" fill="#D59E4E"/>
<rect x="7" y="4" width="1" height="1" fill="#EDCD7A"/>
<rect x="9" y="4" width="1" height="1" fill="#DFAD57"/>
<rect x="6" y="4" width="1" height="1" fill="#EFCA78"/>
<rect x="17" y="4" width="1" height="1" fill="#E5B35C"/>
<rect x="10" y="4" width="1" height="1" fill="#DFAB58"/>
<rect x="16" y="4" width="1" height="1" fill="#E6B45B"/>
<rect x="15" y="4" width="1" height="1" fill="#F4D282"/>
<rect x="12" y="4" width="1" height="1" fill="#ECC877"/>
<rect x="18" y="4" width="1" height="1" fill="#EECE79"/>
<rect x="27" y="4" width="1" height="1" fill="#DBA753"/>
<rect x="5" y="5" width="1" height="1" fill="#EECA78"/>
<rect x="19" y="5" width="1" height="1" fill="#FDDC8C"/>
<rect x="11" y="5" width="1" height="1" fill="#EECC7A"/>
<rect x="22" y="5" width="1" height="1" fill="#D9A352"/>
<rect x="24" y="5" width="1" height="1" fill="#F1CE7D"/>
<rect x="14" y="5" width="1" height="1" fill="#EECA7A"/>
<rect x="4" y="5" width="1" height="1" fill="#DFAB55"/>
<rect x="21" y="5" width="1" height="1" fill="#BE7D3B"/>
<rect x="23" y="5" width="1" height="1" fill="#EECB79"/>
<rect x="25" y="5" width="1" height="1" fill="#EECE7B"/>
<rect x="26" y="5" width="1" height="1" fill="#EECB7A"/>
<rect x="13" y="5" width="1" height="1" fill="#EDCA79"/>
<rect x="20" y="5" width="1" height="1" fill="#D49B4D"/>
<rect x="7" y="5" width="1" height="1" fill="#EECC79"/>
<rect x="9" y="5" width="1" height="1" fill="#E2AE58"/>
<rect x="6" y="5" width="1" height="1" fill="#EFCD7A"/>
<rect x="17" y="5" width="1" height="1" fill="#EECB7B"/>
<rect x="10" y="5" width="1" height="1" fill="#EFCD7C"/>
<rect x="16" y="5" width="1" height="1" fill="#E5B65D"/>
<rect x="15" y="5" width="1" height="1" fill="#FDDC8C"/>
<rect x="12" y="5" width="1" height="1" fill="#EFCA78"/>
<rect x="28" y="5" width="1" height="1" fill="#DEA652"/>
<rect x="18" y="5" width="1" height="1" fill="#EECB7E"/>
<rect x="27" y="5" width="1" height="1" fill="#E7C271"/>
<rect x="27" y="6" width="1" height="1" fill="#EDCE79"/>
<rect x="18" y="6" width="1" height="1" fill="#EFCD7B"/>
<rect x="28" y="6" width="1" height="1" fill="#EBC874"/>
<rect x="12" y="6" width="1" height="1" fill="#EECC7A"/>
<rect x="16" y="6" width="1" height="1" fill="#EECC79"/>
<rect x="10" y="6" width="1" height="1" fill="#EDCB7A"/>
<rect x="17" y="6" width="1" height="1" fill="#F0CD7C"/>
<rect x="6" y="6" width="1" height="1" fill="#EECB79"/>
<rect x="9" y="6" width="1" height="1" fill="#EFCD7A"/>
<rect x="7" y="6" width="1" height="1" fill="#EECC7A"/>
<rect x="3" y="6" width="1" height="1" fill="#E1AD57"/>
<rect x="20" y="6" width="1" height="1" fill="#B87735"/>
<rect x="13" y="6" width="1" height="1" fill="#EEC97A"/>
<rect x="25" y="6" width="1" height="1" fill="#EECB79"/>
<rect x="23" y="6" width="1" height="1" fill="#F0CB7A"/>
<rect x="21" y="6" width="1" height="1" fill="#DAA14F"/>
<rect x="4" y="6" width="1" height="1" fill="#E5B65D"/>
<rect x="14" y="6" width="1" height="1" fill="#FDDC8C"/>
<rect x="24" y="6" width="1" height="1" fill="#E0AD55"/>
<rect x="26" y="6" width="1" height="1" fill="#EECB7A"/>
<rect x="15" y="6" width="1" height="1" fill="#E3B45C"/>
<rect x="22" y="6" width="1" height="1" fill="#EDC977"/>
<rect x="11" y="6" width="1" height="1" fill="#EECB7B"/>
<rect x="19" y="6" width="1" height="1" fill="#FBDC96"/>
<rect x="5" y="6" width="1" height="1" fill="#EFCF7A"/>
<rect x="29" y="6" width="1" height="1" fill="#D7A14F"/>
<rect x="29" y="7" width="1" height="1" fill="#D9A353"/>
<rect x="19" y="7" width="1" height="1" fill="#DCA853"/>
<rect x="15" y="7" width="1" height="1" fill="#EECC7A"/>
<rect x="24" y="7" width="1" height="1" fill="#DFAE56"/>
<rect x="14" y="7" width="1" height="1" fill="#DFAB56"/>
<rect x="4" y="7" width="1" height="1" fill="#EECC79"/>
<rect x="21" y="7" width="1" height="1" fill="#DBA352"/>
<rect x="11" y="7" width="1" height="1" fill="#EDCA79"/>
<rect x="23" y="7" width="1" height="1" fill="#EAC775"/>
<rect x="25" y="7" width="1" height="1" fill="#F6CF74"/>
<rect x="26" y="7" width="1" height="1" fill="#F1CE79"/>
<rect x="22" y="7" width="1" height="1" fill="#F0CB79"/>
<rect x="13" y="7" width="1" height="1" fill="#FBDC96"/>
<rect x="20" y="7" width="1" height="1" fill="#BC7939"/>
<rect x="3" y="7" width="1" height="1" fill="#E2AE57"/>
<rect x="7" y="7" width="1" height="1" fill="#EECC77"/>
<rect x="9" y="7" width="1" height="1" fill="#EECB7A"/>
<rect x="6" y="7" width="1" height="1" fill="#E3B55C"/>
<rect x="17" y="7" width="1" height="1" fill="#EECB77"/>
<rect x="5" y="7" width="1" height="1" fill="#F6CF74"/>
<rect x="10" y="7" width="1" height="1" fill="#EECA79"/>
<rect x="16" y="7" width="1" height="1" fill="#ECC978"/>
<rect x="12" y="7" width="1" height="1" fill="#FBDC96"/>
<rect x="28" y="7" width="1" height="1" fill="#EECA78"/>
<rect x="18" y="7" width="1" height="1" fill="#FBD884"/>
<rect x="27" y="7" width="1" height="1" fill="#EDCA78"/>
<rect x="27" y="8" width="1" height="1" fill="#EFCC7A"/>
<rect x="18" y="8" width="1" height="1" fill="#E7B25B"/>
<rect x="16" y="8" width="1" height="1" fill="#F0CC7C"/>
<rect x="10" y="8" width="1" height="1" fill="#EFCB7B"/>
<rect x="5" y="8" width="1" height="1" fill="#E4B35A"/>
<rect x="2" y="8" width="1" height="1" fill="#E1A953"/>
<rect x="17" y="8" width="1" height="1" fill="#FEDC8B"/>
<rect x="6" y="8" width="1" height="1" fill="#EEC977"/>
<rect x="12" y="8" width="1" height="1" fill="#E3B45B"/>
<rect x="9" y="8" width="1" height="1" fill="#EDCB77"/>
<rect x="7" y="8" width="1" height="1" fill="#EFCD7B"/>
<rect x="3" y="8" width="1" height="1" fill="#EECC79"/>
<rect x="30" y="8" width="1" height="1" fill="#D7A251"/>
<rect x="20" y="8" width="1" height="1" fill="#E0A176"/>
<rect x="13" y="8" width="1" height="1" fill="#E2AD56"/>
<rect x="22" y="8" width="1" height="1" fill="#EFCB7A"/>
<rect x="25" y="8" width="1" height="1" fill="#E1B055"/>
<rect x="23" y="8" width="1" height="1" fill="#EDCB79"/>
<rect x="28" y="8" width="1" height="1" fill="#EBC874"/>
<rect x="11" y="8" width="1" height="1" fill="#FBD884"/>
<rect x="21" y="8" width="1" height="1" fill="#D59E4F"/>
<rect x="4" y="8" width="1" height="1" fill="#FEDC8B"/>
<rect x="14" y="8" width="1" height="1" fill="#DFAC56"/>
<rect x="24" y="8" width="1" height="1" fill="#EECB77"/>
<rect x="26" y="8" width="1" height="1" fill="#EDCA7A"/>
<rect x="15" y="8" width="1" height="1" fill="#E8C372"/>
<rect x="19" y="8" width="1" height="1" fill="#BB7838"/>
<rect x="29" y="8" width="1" height="1" fill="#E7BA65"/>
<rect x="29" y="9" width="1" height="1" fill="#EDCB77"/>
<rect x="14" y="9" width="1" height="1" fill="#EFCC78"/>
<rect x="21" y="9" width="1" height="1" fill="#D69D4F"/>
<rect x="28" y="9" width="1" height="1" fill="#EECC79"/>
<rect x="13" y="9" width="1" height="1" fill="#D49D4C"/>
<rect x="24" y="9" width="1" height="1" fill="#F0CC78"/>
<rect x="30" y="9" width="1" height="1" fill="#D69D4E"/>
<rect x="7" y="9" width="1" height="1" fill="#EFCA79"/>
<rect x="4" y="9" width="1" height="1" fill="#FCD882"/>
<rect x="12" y="9" width="1" height="1" fill="#E1B058"/>
<rect x="6" y="9" width="1" height="1" fill="#EFCC77"/>
<rect x="26" y="9" width="1" height="1" fill="#FBD884"/>
<rect x="22" y="9" width="1" height="1" fill="#F6CF74"/>
<rect x="11" y="9" width="1" height="1" fill="#E3B45C"/>
<rect x="19" y="9" width="1" height="1" fill="#DE9F77"/>
<rect x="25" y="9" width="1" height="1" fill="#EDCA76"/>
<rect x="9" y="9" width="1" height="1" fill="#FEDC8B"/>
<rect x="20" y="9" width="1" height="1" fill="#EEBF8B"/>
<rect x="23" y="9" width="1" height="1" fill="#EECC7A"/>
<rect x="3" y="9" width="1" height="1" fill="#EECC79"/>
<rect x="17" y="9" width="1" height="1" fill="#FCD882"/>
<rect x="2" y="9" width="1" height="1" fill="#DEA853"/>
<rect x="5" y="9" width="1" height="1" fill="#E4B55B"/>
<rect x="10" y="9" width="1" height="1" fill="#FEDC8B"/>
<rect x="16" y="9" width="1" height="1" fill="#FCD882"/>
<rect x="18" y="9" width="1" height="1" fill="#CD9045"/>
<rect x="27" y="9" width="1" height="1" fill="#EDCB77"/>
<rect x="15" y="9" width="1" height="1" fill="#EECC7A"/>
<rect x="15" y="10" width="1" height="1" fill="#FFDE8E"/>
<rect x="1" y="10" width="1" height="1" fill="#D89B4B"/>
<rect x="16" y="10" width="1" height="1" fill="#DDA954"/>
<rect x="10" y="10" width="1" height="1" fill="#E1AF59"/>
<rect x="5" y="10" width="1" height="1" fill="#EFCB77"/>
<rect x="2" y="10" width="1" height="1" fill="#EFCB77"/>
<rect x="17" y="10" width="1" height="1" fill="#CD9248"/>
<rect x="3" y="10" width="1" height="1" fill="#FFDE8E"/>
<rect x="18" y="10" width="1" height="1" fill="#E0A27B"/>
<rect x="23" y="10" width="1" height="1" fill="#FEDC8B"/>
<rect x="20" y="10" width="1" height="1" fill="#EEBF8B"/>
<rect x="9" y="10" width="1" height="1" fill="#E2AD56"/>
<rect x="25" y="10" width="1" height="1" fill="#EFCC7A"/>
<rect x="19" y="10" width="1" height="1" fill="#F0C18E"/>
<rect x="11" y="10" width="1" height="1" fill="#E2B059"/>
<rect x="22" y="10" width="1" height="1" fill="#C7883F"/>
<rect x="6" y="10" width="1" height="1" fill="#EDCB79"/>
<rect x="12" y="10" width="1" height="1" fill="#CD9343"/>
<rect x="4" y="10" width="1" height="1" fill="#DEAB52"/>
<rect x="27" y="10" width="1" height="1" fill="#FEDC8B"/>
<rect x="7" y="10" width="1" height="1" fill="#ECC975"/>
<rect x="30" y="10" width="1" height="1" fill="#F1CE79"/>
<rect x="24" y="10" width="1" height="1" fill="#EBC879"/>
<rect x="13" y="10" width="1" height="1" fill="#ECC572"/>
<rect x="26" y="10" width="1" height="1" fill="#E1AF57"/>
<rect x="28" y="10" width="1" height="1" fill="#EECA79"/>
<rect x="21" y="10" width="1" height="1" fill="#F1C587"/>
<rect x="14" y="10" width="1" height="1" fill="#EECB77"/>
<rect x="29" y="10" width="1" height="1" fill="#EDCB77"/>
<rect x="29" y="11" width="1" height="1" fill="#FFDE8E"/>
<rect x="14" y="11" width="1" height="1" fill="#FFE6A3"/>
<rect x="28" y="11" width="1" height="1" fill="#FCD882"/>
<rect x="13" y="11" width="1" height="1" fill="#FFDE8E"/>
<rect x="30" y="11" width="1" height="1" fill="#FFE6A3"/>
<rect x="27" y="11" width="1" height="1" fill="#DFA953"/>
<rect x="12" y="11" width="1" height="1" fill="#E2B45C"/>
<rect x="11" y="11" width="1" height="1" fill="#C98E43"/>
<rect x="26" y="11" width="1" height="1" fill="#EDC975"/>
<rect x="25" y="11" width="1" height="1" fill="#ECC877"/>
<rect x="9" y="11" width="1" height="1" fill="#DDA854"/>
<rect x="24" y="11" width="1" height="1" fill="#FCD882"/>
<rect x="23" y="11" width="1" height="1" fill="#DD9C71"/>
<rect x="22" y="11" width="1" height="1" fill="#E0A178"/>
<rect x="7" y="11" width="1" height="1" fill="#FFDE8E"/>
<rect x="21" y="11" width="1" height="1" fill="#EEBF8B"/>
<rect x="6" y="11" width="1" height="1" fill="#FFDE8E"/>
<rect x="20" y="11" width="1" height="1" fill="#EEBF8B"/>
<rect x="19" y="11" width="1" height="1" fill="#EEBF8B"/>
<rect x="4" y="11" width="1" height="1" fill="#EEC975"/>
<rect x="18" y="11" width="1" height="1" fill="#EEBF8D"/>
<rect x="3" y="11" width="1" height="1" fill="#E3B25B"/>
<rect x="17" y="11" width="1" height="1" fill="#E2A47A"/>
<rect x="2" y="11" width="1" height="1" fill="#FFE6A3"/>
<rect x="5" y="11" width="1" height="1" fill="#F0CD7C"/>
<rect x="10" y="11" width="1" height="1" fill="#CB9044"/>
<rect x="16" y="11" width="1" height="1" fill="#C88944"/>
<rect x="1" y="11" width="1" height="1" fill="#C78942"/>
<rect x="15" y="11" width="1" height="1" fill="#BF803B"/>
<rect y="12" width="1" height="1" fill="#CB9045"/>
<rect x="15" y="12" width="1" height="1" fill="#E4A67A"/>
<rect x="1" y="12" width="1" height="1" fill="#FFEAB1"/>
<rect x="16" y="12" width="1" height="1" fill="#EEC18E"/>
<rect x="2" y="12" width="1" height="1" fill="#DFAC55"/>
<rect x="17" y="12" width="1" height="1" fill="#EEBF8B"/>
<rect x="3" y="12" width="1" height="1" fill="#D8A151"/>
<rect x="18" y="12" width="1" height="1" fill="#EEBF8B"/>
<rect x="4" y="12" width="1" height="1" fill="#FFE6A3"/>
<rect x="19" y="12" width="1" height="1" fill="#EEBF8B"/>
<rect x="5" y="12" width="1" height="1" fill="#FFE6A3"/>
<rect x="20" y="12" width="1" height="1" fill="#EEBF8B"/>
<rect x="6" y="12" width="1" height="1" fill="#D7A14F"/>
<rect x="21" y="12" width="1" height="1" fill="#EEBF8B"/>
<rect x="7" y="12" width="1" height="1" fill="#D8A14F"/>
<rect x="22" y="12" width="1" height="1" fill="#ECBA8B"/>
<rect x="23" y="12" width="1" height="1" fill="#D8956D"/>
<rect x="24" y="12" width="1" height="1" fill="#CF875C"/>
<rect x="9" y="12" width="1" height="1" fill="#C1813F"/>
<rect x="25" y="12" width="1" height="1" fill="#ECC877"/>
<rect x="10" y="12" width="1" height="1" fill="#DD9E73"/>
<rect x="11" y="12" width="1" height="1" fill="#E3A179"/>
<rect x="26" y="12" width="1" height="1" fill="#EBC776"/>
<rect x="12" y="12" width="1" height="1" fill="#BC7D39"/>
<rect x="27" y="12" width="1" height="1" fill="#EBC776"/>
<rect x="30" y="12" width="1" height="1" fill="#D39A4B"/>
<rect x="13" y="12" width="1" height="1" fill="#C2813E"/>
<rect x="28" y="12" width="1" height="1" fill="#D49E4E"/>
<rect x="14" y="12" width="1" height="1" fill="#BE7E3D"/>
<rect x="29" y="12" width="1" height="1" fill="#CD8F49"/>
<rect y="13" width="1" height="1" fill="#CB8E42"/>
<rect x="15" y="13" width="1" height="1" fill="#EDBF8B"/>
<rect x="1" y="13" width="1" height="1" fill="#D9A44D"/>
<rect x="16" y="13" width="1" height="1" fill="#EEBF8B"/>
<rect x="2" y="13" width="1" height="1" fill="#C48740"/>
<rect x="17" y="13" width="1" height="1" fill="#EEBF8B"/>
<rect x="3" y="13" width="1" height="1" fill="#D49B4C"/>
<rect x="18" y="13" width="1" height="1" fill="#C88B43"/>
<rect x="4" y="13" width="1" height="1" fill="#D39A4B"/>
<rect x="19" y="13" width="1" height="1" fill="#C58944"/>
<rect x="5" y="13" width="1" height="1" fill="#D29B4A"/>
<rect x="20" y="13" width="1" height="1" fill="#BF803B"/>
<rect x="6" y="13" width="1" height="1" fill="#D2984A"/>
<rect x="21" y="13" width="1" height="1" fill="#C78942"/>
<rect x="7" y="13" width="1" height="1" fill="#D0974A"/>
<rect x="22" y="13" width="1" height="1" fill="#E8B986"/>
<rect x="23" y="13" width="1" height="1" fill="#EDBA8A"/>
<rect x="24" y="13" width="1" height="1" fill="#D28F66"/>
<rect x="9" y="13" width="1" height="1" fill="#EEBF8B"/>
<rect x="25" y="13" width="1" height="1" fill="#FCD882"/>
<rect x="10" y="13" width="1" height="1" fill="#EDBA8A"/>
<rect x="11" y="13" width="1" height="1" fill="#EDBA8A"/>
<rect x="26" y="13" width="1" height="1" fill="#EDC975"/>
<rect x="12" y="13" width="1" height="1" fill="#DE9F76"/>
<rect x="27" y="13" width="1" height="1" fill="#F0CC78"/>
<rect x="30" y="13" width="1" height="1" fill="#D49B4D"/>
<rect x="13" y="13" width="1" height="1" fill="#DFA379"/>
<rect x="28" y="13" width="1" height="1" fill="#EBC776"/>
<rect x="14" y="13" width="1" height="1" fill="#E1A37C"/>
<rect x="29" y="13" width="1" height="1" fill="#EBC776"/>
<rect y="14" width="1" height="1" fill="#C58441"/>
<rect x="15" y="14" width="1" height="1" fill="#EEBF8B"/>
<rect x="1" y="14" width="1" height="1" fill="#D79E4F"/>
<rect x="16" y="14" width="1" height="1" fill="#EBB988"/>
<rect x="2" y="14" width="1" height="1" fill="#C88942"/>
<rect x="17" y="14" width="1" height="1" fill="#A8652F"/>
<rect x="3" y="14" width="1" height="1" fill="#C28541"/>
<rect x="18" y="14" width="1" height="1" fill="#AF6E38"/>
<rect x="4" y="14" width="1" height="1" fill="#C88D44"/>
<rect x="19" y="14" width="1" height="1" fill="#B16F36"/>
<rect x="5" y="14" width="1" height="1" fill="#C78C45"/>
<rect x="20" y="14" width="1" height="1" fill="#B17035"/>
<rect x="6" y="14" width="1" height="1" fill="#AD6D31"/>
<rect x="21" y="14" width="1" height="1" fill="#B06E32"/>
<rect x="7" y="14" width="1" height="1" fill="#AC6A33"/>
<rect x="22" y="14" width="1" height="1" fill="#B27137"/>
<rect x="23" y="14" width="1" height="1" fill="#EAB587"/>
<rect x="24" y="14" width="1" height="1" fill="#EEBB8B"/>
<rect x="9" y="14" width="1" height="1" fill="#B36F35"/>
<rect x="25" y="14" width="1" height="1" fill="#C98E46"/>
<rect x="10" y="14" width="1" height="1" fill="#EEBF8B"/>
<rect x="11" y="14" width="1" height="1" fill="#EEBF8B"/>
<rect x="26" y="14" width="1" height="1" fill="#FFE6A3"/>
<rect x="12" y="14" width="1" height="1" fill="#EBB789"/>
<rect x="27" y="14" width="1" height="1" fill="#DEAA54"/>
<rect x="30" y="14" width="1" height="1" fill="#E7BA65"/>
<rect x="13" y="14" width="1" height="1" fill="#EDBA89"/>
<rect x="28" y="14" width="1" height="1" fill="#EBC874"/>
<rect x="14" y="14" width="1" height="1" fill="#EEBD8E"/>
<rect x="29" y="14" width="1" height="1" fill="#EBC874"/>
<rect x="15" y="15" width="1" height="1" fill="#EEBC8D"/>
<rect x="1" y="15" width="1" height="1" fill="#C0813B"/>
<rect x="16" y="15" width="1" height="1" fill="#535F59"/>
<rect x="2" y="15" width="1" height="1" fill="#E6B761"/>
<rect x="17" y="15" width="1" height="1" fill="#515D54"/>
<rect x="3" y="15" width="1" height="1" fill="#BE7E3E"/>
<rect x="18" y="15" width="1" height="1" fill="#515B53"/>
<rect x="4" y="15" width="1" height="1" fill="#4A564E"/>
<rect x="19" y="15" width="1" height="1" fill="#535F54"/>
<rect x="5" y="15" width="1" height="1" fill="#4B5B51"/>
<rect x="20" y="15" width="1" height="1" fill="#4E5852"/>
<rect x="6" y="15" width="1" height="1" fill="#4A564C"/>
<rect x="21" y="15" width="1" height="1" fill="#515C54"/>
<rect x="7" y="15" width="1" height="1" fill="#4D5752"/>
<rect x="22" y="15" width="1" height="1" fill="#525D55"/>
<rect x="23" y="15" width="1" height="1" fill="#54625C"/>
<rect x="24" y="15" width="1" height="1" fill="#E7AF80"/>
<rect x="9" y="15" width="1" height="1" fill="#515C54"/>
<rect x="25" y="15" width="1" height="1" fill="#CB9048"/>
<rect x="10" y="15" width="1" height="1" fill="#52615A"/>
<rect x="11" y="15" width="1" height="1" fill="#EEBF8B"/>
<rect x="26" y="15" width="1" height="1" fill="#CD9246"/>
<rect x="12" y="15" width="1" height="1" fill="#EAB888"/>
<rect x="27" y="15" width="1" height="1" fill="#FFE6A3"/>
<rect x="30" y="15" width="1" height="1" fill="#EBC776"/>
<rect x="13" y="15" width="1" height="1" fill="#EBB688"/>
<rect x="28" y="15" width="1" height="1" fill="#FFDE8E"/>
<rect x="14" y="15" width="1" height="1" fill="#EEBC8A"/>
<rect x="29" y="15" width="1" height="1" fill="#FCD882"/>
<rect x="15" y="16" width="1" height="1" fill="#34413D"/>
<rect x="1" y="16" width="1" height="1" fill="#CA8A42"/>
<rect x="16" y="16" width="1" height="1" fill="#35433D"/>
<rect x="2" y="16" width="1" height="1" fill="#374642"/>
<rect x="17" y="16" width="1" height="1" fill="#CE835D"/>
<rect x="3" y="16" width="1" height="1" fill="#384744"/>
<rect x="18" y="16" width="1" height="1" fill="#C87B53"/>
<rect x="4" y="16" width="1" height="1" fill="#3C4B46"/>
<rect x="19" y="16" width="1" height="1" fill="#D58B62"/>
<rect x="5" y="16" width="1" height="1" fill="#34423F"/>
<rect x="20" y="16" width="1" height="1" fill="#CF845B"/>
<rect x="6" y="16" width="1" height="1" fill="#BF724D"/>
<rect x="21" y="16" width="1" height="1" fill="#CB8054"/>
<rect x="7" y="16" width="1" height="1" fill="#CB7C58"/>
<rect x="22" y="16" width="1" height="1" fill="#D38860"/>
<rect x="23" y="16" width="1" height="1" fill="#4B5450"/>
<rect x="24" y="16" width="1" height="1" fill="#4E5C56"/>
<rect x="9" y="16" width="1" height="1" fill="#D1875E"/>
<rect x="25" y="16" width="1" height="1" fill="#4F5B57"/>
<rect x="10" y="16" width="1" height="1" fill="#3B4640"/>
<rect x="26" y="16" width="1" height="1" fill="#48524A"/>
<rect x="11" y="16" width="1" height="1" fill="#3A4744"/>
<rect x="12" y="16" width="1" height="1" fill="#B65F42"/>
<rect x="27" y="16" width="1" height="1" fill="#CD9246"/>
<rect x="30" y="16" width="1" height="1" fill="#BA7C3C"/>
<rect x="13" y="16" width="1" height="1" fill="#BA664A"/>
<rect x="28" y="16" width="1" height="1" fill="#B17134"/>
<rect x="14" y="16" width="1" height="1" fill="#BC6847"/>
<rect x="29" y="16" width="1" height="1" fill="#B97939"/>
<rect x="15" y="17" width="1" height="1" fill="#2F3F39"/>
<rect x="1" y="17" width="1" height="1" fill="#C68243"/>
<rect x="2" y="18" width="1" height="1" fill="#C68243"/>
<rect x="16" y="17" width="1" height="1" fill="#C47250"/>
<rect x="2" y="17" width="1" height="1" fill="#3B4B45"/>
<rect x="17" y="17" width="1" height="1" fill="#682A0D"/>
<rect x="3" y="17" width="1" height="1" fill="#32413D"/>
<rect x="18" y="17" width="1" height="1" fill="#682A0D"/>
<rect x="4" y="17" width="1" height="1" fill="#33423F"/>
<rect x="19" y="17" width="1" height="1" fill="#682A0D"/>
<rect x="5" y="17" width="1" height="1" fill="#CA7C57"/>
<rect x="20" y="17" width="1" height="1" fill="#682A0D"/>
<rect x="6" y="17" width="1" height="1" fill="#682A0D"/>
<rect x="21" y="17" width="1" height="1" fill="#682A0D"/>
<rect x="7" y="17" width="1" height="1" fill="#682A0D"/>
<rect x="22" y="17" width="1" height="1" fill="#D38761"/>
<rect x="23" y="17" width="1" height="1" fill="#D1835C"/>
<rect x="24" y="17" width="1" height="1" fill="#3E4E47"/>
<rect x="9" y="17" width="1" height="1" fill="#682A0D"/>
<rect x="25" y="17" width="1" height="1" fill="#374A42"/>
<rect x="10" y="17" width="1" height="1" fill="#C67751"/>
<rect x="26" y="17" width="1" height="1" fill="#3B4943"/>
<rect x="11" y="17" width="1" height="1" fill="#3D4843"/>
<rect x="12" y="17" width="1" height="1" fill="#32413D"/>
<rect x="27" y="17" width="1" height="1" fill="#E5AD57"/>
<rect x="30" y="17" width="1" height="1" fill="#C2843E"/>
<rect x="31" y="10" width="1" height="1" fill="#D7A251"/>
<rect x="31" y="11" width="1" height="1" fill="#D69D4E"/>
<rect x="31" y="12" width="1" height="1" fill="#D29B4D"/>
<rect x="31" y="13" width="1" height="1" fill="#D49B4D"/>
<rect x="31" y="14" width="1" height="1" fill="#D39A4B"/>
<rect x="31" y="15" width="1" height="1" fill="#CF964A"/>
<rect x="31" y="16" width="1" height="1" fill="#C78C43"/>
<rect x="31" y="17" width="1" height="1" fill="#C58740"/>
<rect x="31" y="18" width="1" height="1" fill="#C0803E"/>
<rect x="31" y="19" width="1" height="1" fill="#BA7C3C"/>
<rect x="13" y="17" width="1" height="1" fill="#2F3F39"/>
<rect x="28" y="17" width="1" height="1" fill="#E6A67C"/>
<rect x="14" y="17" width="1" height="1" fill="#2F3F39"/>
<rect x="29" y="17" width="1" height="1" fill="#C47250"/>
<rect x="15" y="18" width="1" height="1" fill="#4E5C56"/>
<rect x="16" y="18" width="1" height="1" fill="#AF4B37"/>
<rect x="17" y="18" width="1" height="1" fill="#DB9770"/>
<rect x="3" y="18" width="1" height="1" fill="#4E5C56"/>
<rect x="18" y="18" width="1" height="1" fill="#6B2A0B"/>
<rect x="4" y="18" width="1" height="1" fill="#4E5C56"/>
<rect x="19" y="18" width="1" height="1" fill="#7A2F0C"/>
<rect x="5" y="18" width="1" height="1" fill="#AF4B37"/>
<rect x="20" y="18" width="1" height="1" fill="white"/>
<rect x="6" y="18" width="1" height="1" fill="#DB9770"/>
<rect x="21" y="18" width="1" height="1" fill="#7A2F0C"/>
<rect x="7" y="18" width="1" height="1" fill="#6B2A0B"/>
<rect x="22" y="18" width="1" height="1" fill="#AF4E3A"/>
<rect x="23" y="18" width="1" height="1" fill="#D38560"/>
<rect x="24" y="18" width="1" height="1" fill="#4E5C56"/>
<rect x="9" y="18" width="1" height="1" fill="white"/>
<rect x="25" y="18" width="1" height="1" fill="#4E5C56"/>
<rect x="10" y="18" width="1" height="1" fill="#7A2F0C"/>
<rect x="11" y="18" width="1" height="1" fill="#4E5C56"/>
<rect x="26" y="18" width="1" height="1" fill="#CD9046"/>
<rect x="12" y="18" width="1" height="1" fill="#E4A57E"/>
<rect x="27" y="18" width="1" height="1" fill="#BB7A3B"/>
<rect x="30" y="18" width="1" height="1" fill="#D58061"/>
<rect x="13" y="18" width="1" height="1" fill="#E3A27A"/>
<rect x="28" y="18" width="1" height="1" fill="#E6A67C"/>
<rect x="14" y="18" width="1" height="1" fill="#E4A57B"/>
<rect x="29" y="18" width="1" height="1" fill="#E3A57B"/>
<rect x="15" y="19" width="1" height="1" fill="#A23627"/>
<rect x="16" y="19" width="1" height="1" fill="#D58B64"/>
<rect x="2" y="19" width="1" height="1" fill="#C46E4E"/>
<rect x="17" y="19" width="1" height="1" fill="#E19E74"/>
<rect x="3" y="19" width="1" height="1" fill="#E6A67C"/>
<rect x="18" y="19" width="1" height="1" fill="#7C3000"/>
<rect x="4" y="19" width="1" height="1" fill="#9D2F20"/>
<rect x="19" y="19" width="1" height="1" fill="#7C3000"/>
<rect x="5" y="19" width="1" height="1" fill="#D58B66"/>
<rect x="20" y="19" width="1" height="1" fill="#893500"/>
<rect x="6" y="19" width="1" height="1" fill="#D58A65"/>
<rect x="21" y="19" width="1" height="1" fill="#893500"/>
<rect x="7" y="19" width="1" height="1" fill="#7C3000"/>
<rect x="22" y="19" width="1" height="1" fill="#D68E66"/>
<rect x="23" y="19" width="1" height="1" fill="#DB916B"/>
<rect x="24" y="19" width="1" height="1" fill="#9D2F20"/>
<rect x="9" y="19" width="1" height="1" fill="#893500"/>
<rect x="10" y="19" width="1" height="1" fill="#893500"/>
<rect x="25" y="19" width="1" height="1" fill="#B67436"/>
<rect x="11" y="19" width="1" height="1" fill="#A63525"/>
<rect x="26" y="19" width="1" height="1" fill="#D0954C"/>
<rect x="12" y="19" width="1" height="1" fill="#EBB686"/>
<rect x="27" y="19" width="1" height="1" fill="#BD6345"/>
<rect x="30" y="19" width="1" height="1" fill="#D37D54"/>
<rect x="13" y="19" width="1" height="1" fill="#EFBB8F"/>
<rect x="28" y="19" width="1" height="1" fill="#B65941"/>
<rect x="14" y="19" width="1" height="1" fill="#ECB789"/>
<rect x="29" y="19" width="1" height="1" fill="#E8AC82"/>
<rect x="15" y="20" width="1" height="1" fill="#A33527"/>
<rect x="16" y="20" width="1" height="1" fill="#D48A62"/>
<rect x="2" y="20" width="1" height="1" fill="#C36D4F"/>
<rect x="17" y="20" width="1" height="1" fill="#E4A87D"/>
<rect x="3" y="20" width="1" height="1" fill="#E6A67C"/>
<rect x="18" y="20" width="1" height="1" fill="#E1A679"/>
<rect x="4" y="20" width="1" height="1" fill="#9B251C"/>
<rect x="19" y="20" width="1" height="1" fill="#7E3D00"/>
<rect x="5" y="20" width="1" height="1" fill="#DC9974"/>
<rect x="20" y="20" width="1" height="1" fill="#8B4300"/>
<rect x="6" y="20" width="1" height="1" fill="#E4A87D"/>
<rect x="21" y="20" width="1" height="1" fill="#E29E74"/>
<rect x="7" y="20" width="1" height="1" fill="#E1A679"/>
<rect x="22" y="20" width="1" height="1" fill="#E19E76"/>
<rect x="23" y="20" width="1" height="1" fill="#9A2A1F"/>
<rect x="24" y="20" width="1" height="1" fill="#EDBC8B"/>
<rect x="9" y="20" width="1" height="1" fill="#8B4300"/>
<rect x="10" y="20" width="1" height="1" fill="#D38863"/>
<rect x="25" y="20" width="1" height="1" fill="#C88A45"/>
<rect x="11" y="20" width="1" height="1" fill="#A83A2B"/>
<rect x="12" y="20" width="1" height="1" fill="#EDBA89"/>
<rect x="27" y="20" width="1" height="1" fill="#B65941"/>
<rect x="30" y="20" width="1" height="1" fill="#CF8157"/>
<rect x="13" y="20" width="1" height="1" fill="#ECBD89"/>
<rect x="28" y="20" width="1" height="1" fill="#D38461"/>
<rect x="14" y="20" width="1" height="1" fill="#EEBB89"/>
<rect x="29" y="20" width="1" height="1" fill="#EDB88A"/>
<rect x="2" y="21" width="1" height="1" fill="#C26E52"/>
<rect x="26" y="20" width="1" height="1" fill="#B65941"/>
<rect x="15" y="21" width="1" height="1" fill="#EDBB8C"/>
<rect x="16" y="21" width="1" height="1" fill="#A33627"/>
<rect x="17" y="21" width="1" height="1" fill="#D68764"/>
<rect x="3" y="21" width="1" height="1" fill="#DA9B72"/>
<rect x="18" y="21" width="1" height="1" fill="#D68764"/>
<rect x="4" y="21" width="1" height="1" fill="#E7AC81"/>
<rect x="19" y="21" width="1" height="1" fill="#CE835D"/>
<rect x="5" y="21" width="1" height="1" fill="#AB4833"/>
<rect x="20" y="21" width="1" height="1" fill="#D78C67"/>
<rect x="6" y="21" width="1" height="1" fill="#AD4535"/>
<rect x="21" y="21" width="1" height="1" fill="#D99067"/>
<rect x="7" y="21" width="1" height="1" fill="#D2815F"/>
<rect x="22" y="21" width="1" height="1" fill="#A43728"/>
<rect x="23" y="21" width="1" height="1" fill="#DB9D54"/>
<rect x="24" y="21" width="1" height="1" fill="#EDBC8B"/>
<rect x="9" y="21" width="1" height="1" fill="#D08460"/>
<rect x="10" y="21" width="1" height="1" fill="#94261D"/>
<rect x="25" y="21" width="1" height="1" fill="#DE9B73"/>
<rect x="11" y="21" width="1" height="1" fill="#EBB789"/>
<rect x="26" y="21" width="1" height="1" fill="#DC936D"/>
<rect x="12" y="21" width="1" height="1" fill="#F2C496"/>
<rect x="27" y="21" width="1" height="1" fill="#B65941"/>
<rect x="30" y="21" width="1" height="1" fill="#C36B51"/>
<rect x="13" y="21" width="1" height="1" fill="#F3C497"/>
<rect x="28" y="21" width="1" height="1" fill="#D68866"/>
<rect x="14" y="21" width="1" height="1" fill="#EFBE8D"/>
<rect x="29" y="21" width="1" height="1" fill="#ECB88A"/>
<rect x="29" y="22" width="1" height="1" fill="#D0845C"/>
<rect x="14" y="22" width="1" height="1" fill="#EFC08E"/>
<rect x="28" y="22" width="1" height="1" fill="#E6AD7F"/>
<rect x="13" y="22" width="1" height="1" fill="#E6B184"/>
<rect x="27" y="22" width="1" height="1" fill="#DF9E75"/>
<rect x="12" y="22" width="1" height="1" fill="#F8C794"/>
<rect x="10" y="22" width="1" height="1" fill="#BE6748"/>
<rect x="25" y="22" width="1" height="1" fill="#E1A279"/>
<rect x="9" y="22" width="1" height="1" fill="#9F3326"/>
<rect x="24" y="22" width="1" height="1" fill="#EBBA89"/>
<rect x="23" y="22" width="1" height="1" fill="#EDBE8C"/>
<rect x="22" y="22" width="1" height="1" fill="#E2A466"/>
<rect x="7" y="22" width="1" height="1" fill="#A53829"/>
<rect x="20" y="22" width="1" height="1" fill="#A43427"/>
<rect x="5" y="22" width="1" height="1" fill="#E7AC81"/>
<rect x="19" y="22" width="1" height="1" fill="#A33725"/>
<rect x="4" y="22" width="1" height="1" fill="#BD6247"/>
<rect x="18" y="22" width="1" height="1" fill="#A33627"/>
<rect x="3" y="22" width="1" height="1" fill="#C47053"/>
<rect x="6" y="22" width="1" height="1" fill="#A63B2B"/>
<rect x="11" y="22" width="1" height="1" fill="#FBD0A5"/>
<rect x="17" y="22" width="1" height="1" fill="#98281F"/>
<rect x="16" y="22" width="1" height="1" fill="#ECBA87"/>
<rect x="21" y="22" width="1" height="1" fill="#A23627"/>
<rect x="26" y="22" width="1" height="1" fill="#C06C4C"/>
<rect x="15" y="22" width="1" height="1" fill="#EDBE8C"/>
<rect x="29" y="23" width="1" height="1" fill="#C36B51"/>
<rect x="14" y="23" width="1" height="1" fill="#EBB888"/>
<rect x="13" y="23" width="1" height="1" fill="#D6916B"/>
<rect x="27" y="23" width="1" height="1" fill="#EAB688"/>
<rect x="12" y="23" width="1" height="1" fill="#DC9873"/>
<rect x="10" y="23" width="1" height="1" fill="#DC9873"/>
<rect x="25" y="23" width="1" height="1" fill="#E4A67F"/>
<rect x="9" y="23" width="1" height="1" fill="#EAB488"/>
<rect x="24" y="23" width="1" height="1" fill="#ECBB8C"/>
<rect x="23" y="23" width="1" height="1" fill="#EFC18F"/>
<rect x="22" y="23" width="1" height="1" fill="#F0BE8D"/>
<rect x="7" y="23" width="1" height="1" fill="#EFC18F"/>
<rect x="20" y="23" width="1" height="1" fill="#EDB589"/>
<rect x="5" y="23" width="1" height="1" fill="#E8A87F"/>
<rect x="19" y="23" width="1" height="1" fill="#EDBA8A"/>
<rect x="4" y="23" width="1" height="1" fill="#BF674B"/>
<rect x="18" y="23" width="1" height="1" fill="#EBB98B"/>
<rect x="6" y="23" width="1" height="1" fill="#F3C291"/>
<rect x="11" y="23" width="1" height="1" fill="#DB976E"/>
<rect x="17" y="23" width="1" height="1" fill="#EFC18F"/>
<rect x="16" y="23" width="1" height="1" fill="#EFC18F"/>
<rect x="21" y="23" width="1" height="1" fill="#ECB88C"/>
<rect x="26" y="23" width="1" height="1" fill="#E6AE81"/>
<rect x="15" y="23" width="1" height="1" fill="#EDBE8D"/>
<rect x="14" y="24" width="1" height="1" fill="#EEBD8E"/>
<rect x="28" y="23" width="1" height="1" fill="#C1674D"/>
<rect x="13" y="24" width="1" height="1" fill="#E9B085"/>
<rect x="12" y="24" width="1" height="1" fill="#E9B085"/>
<rect x="10" y="24" width="1" height="1" fill="#EEBC8D"/>
<rect x="25" y="24" width="1" height="1" fill="#DF9E75"/>
<rect x="9" y="24" width="1" height="1" fill="#F1BF8E"/>
<rect x="19" y="24" width="1" height="1" fill="#EFC08F"/>
<rect x="18" y="24" width="1" height="1" fill="#EDBB8C"/>
<rect x="11" y="24" width="1" height="1" fill="#DC9873"/>
<rect x="17" y="24" width="1" height="1" fill="#EFC18F"/>
<rect x="16" y="24" width="1" height="1" fill="#EFC18F"/>
<rect x="15" y="24" width="1" height="1" fill="#F3C293"/>
<rect x="14" y="25" width="1" height="1" fill="#F3C293"/>
<rect x="13" y="25" width="1" height="1" fill="#F3C293"/>
<rect x="27" y="24" width="1" height="1" fill="#BA6045"/>
<rect x="12" y="25" width="1" height="1" fill="#F3C293"/>
<rect x="10" y="25" width="1" height="1" fill="#F1C291"/>
<rect x="25" y="24" width="1" height="1" fill="#DB9871"/>
<rect x="24" y="24" width="1" height="1" fill="#E9B686"/>
<rect x="23" y="24" width="1" height="1" fill="#F0BE8F"/>
<rect x="22" y="24" width="1" height="1" fill="#EFC18F"/>
<rect x="7" y="24" width="1" height="1" fill="#EFC18F"/>
<rect x="20" y="24" width="1" height="1" fill="#E9B787"/>
<rect x="5" y="24" width="1" height="1" fill="#DA9571"/>
<rect x="4" y="24" width="1" height="1" fill="#B85E44"/>
<rect x="6" y="24" width="1" height="1" fill="#EDBA8C"/>
<rect x="11" y="25" width="1" height="1" fill="#F3C293"/>
<rect x="17" y="25" width="1" height="1" fill="#EDBE8F"/>
<rect x="16" y="25" width="1" height="1" fill="#EEBF8E"/>
<rect x="21" y="24" width="1" height="1" fill="#EFC18F"/>
<rect x="26" y="24" width="1" height="1" fill="#B1543C"/>
<rect x="15" y="25" width="1" height="1" fill="#F1C291"/>
<rect x="27" y="25" width="1" height="1" fill="#BF7A3F"/>
<rect x="25" y="25" width="1" height="1" fill="#BF7C3C"/>
<rect x="24" y="25" width="1" height="1" fill="#E19F76"/>
<rect x="23" y="25" width="1" height="1" fill="#EEBD8E"/>
<rect x="22" y="25" width="1" height="1" fill="#EFC18F"/>
<rect x="7" y="25" width="1" height="1" fill="#EFC18F"/>
<rect x="20" y="25" width="1" height="1" fill="#EFC18F"/>
<rect x="5" y="25" width="1" height="1" fill="#CD775A"/>
<rect x="6" y="25" width="1" height="1" fill="#ECBA8B"/>
<rect x="21" y="25" width="1" height="1" fill="#EFC18F"/>
<rect x="26" y="25" width="1" height="1" fill="#BC793A"/>
<rect x="25" y="26" width="1" height="1" fill="#E0AC19"/>
<rect x="25" y="27" width="1" height="1" fill="#D9963A"/>
<rect x="10" y="27" width="1" height="1" fill="#EEBF8C"/>
<rect x="24" y="26" width="1" height="1" fill="#AB662B"/>
<rect x="24" y="27" width="1" height="1" fill="#C78840"/>
<rect x="9" y="26" width="1" height="1" fill="#EFC18F"/>
<rect x="9" y="27" width="1" height="1" fill="#EFC18F"/>
<rect x="23" y="27" width="1" height="1" fill="#A96428"/>
<rect x="23" y="26" width="1" height="1" fill="#ECB789"/>
<rect x="22" y="26" width="1" height="1" fill="#EABB8A"/>
<rect x="22" y="27" width="1" height="1" fill="#F0C18F"/>
<rect x="7" y="26" width="1" height="1" fill="#F0C18E"/>
<rect x="7" y="27" width="1" height="1" fill="#E6AC82"/>
<rect x="20" y="26" width="1" height="1" fill="#EFC18F"/>
<rect x="20" y="27" width="1" height="1" fill="#EFC18F"/>
<rect x="5" y="26" width="1" height="1" fill="#BF6A4F"/>
<rect x="19" y="26" width="1" height="1" fill="#ECBD8B"/>
<rect x="19" y="27" width="1" height="1" fill="#EFC18F"/>
<rect x="18" y="27" width="1" height="1" fill="#EFC18F"/>
<rect x="6" y="26" width="1" height="1" fill="#E8AF84"/>
<rect x="6" y="27" width="1" height="1" fill="#C26A50"/>
<rect x="17" y="27" width="1" height="1" fill="#EFC18F"/>
<rect x="21" y="26" width="1" height="1" fill="#F0BD8A"/>
<rect x="21" y="27" width="1" height="1" fill="#F0C38F"/>
<rect x="26" y="26" width="1" height="1" fill="#A56228"/>
<rect x="26" y="27" width="1" height="1" fill="#F6CF74"/>
<rect x="27" y="27" width="1" height="1" fill="#B77537"/>
<rect x="14" y="28" width="1" height="1" fill="#E7AD85"/>
<rect x="14" y="29" width="1" height="1" fill="#EFC18F"/>
<rect x="13" y="28" width="1" height="1" fill="#EBB38A"/>
<rect x="13" y="29" width="1" height="1" fill="#EFC18F"/>
<rect x="12" y="28" width="1" height="1" fill="#E7AE85"/>
<rect x="12" y="29" width="1" height="1" fill="#EFC18F"/>
<rect x="25" y="28" width="1" height="1" fill="#C5853F"/>
<rect x="10" y="28" width="1" height="1" fill="#EFC18F"/>
<rect x="10" y="29" width="1" height="1" fill="#ECBA8B"/>
<rect x="24" y="28" width="1" height="1" fill="#C6873D"/>
<rect x="24" y="29" width="1" height="1" fill="#C2823D"/>
<rect x="9" y="28" width="1" height="1" fill="#EFC18F"/>
<rect x="23" y="28" width="1" height="1" fill="#A8652D"/>
<rect x="23" y="29" width="1" height="1" fill="#B67234"/>
<rect x="22" y="28" width="1" height="1" fill="#E5A77D"/>
<rect x="22" y="29" width="1" height="1" fill="#C77657"/>
<rect x="7" y="28" width="1" height="1" fill="#BB6146"/>
<rect x="20" y="28" width="1" height="1" fill="#EEBF8E"/>
<rect x="20" y="29" width="1" height="1" fill="#E9B383"/>
<rect x="19" y="28" width="1" height="1" fill="#EFC18F"/>
<rect x="19" y="29" width="1" height="1" fill="#EFBE8F"/>
<rect x="18" y="28" width="1" height="1" fill="#EFC18F"/>
<rect x="18" y="29" width="1" height="1" fill="#EDBA8A"/>
<rect x="11" y="28" width="1" height="1" fill="#EFC18F"/>
<rect x="11" y="29" width="1" height="1" fill="#EFC18F"/>
<rect x="17" y="28" width="1" height="1" fill="#EFC18F"/>
<rect x="17" y="29" width="1" height="1" fill="#EFC18F"/>
<rect x="16" y="28" width="1" height="1" fill="#EFC18F"/>
<rect x="16" y="29" width="1" height="1" fill="#EFC18F"/>
<rect x="21" y="28" width="1" height="1" fill="#EABB8A"/>
<rect x="26" y="28" width="1" height="1" fill="#C58517"/>
<rect x="15" y="28" width="1" height="1" fill="#EFC18F"/>
<rect x="15" y="29" width="1" height="1" fill="#EFC18F"/>
<rect x="20" y="30" width="1" height="1" fill="#C97657"/>
<rect x="21" y="29" width="1" height="1" fill="#C87756"/>
<rect x="14" y="30" width="1" height="1" fill="#EFC08F"/>
<rect x="14" y="31" width="1" height="1" fill="#BE694D"/>
<rect x="13" y="30" width="1" height="1" fill="#F0BF8E"/>
<rect x="13" y="31" width="1" height="1" fill="#C67457"/>
<rect x="12" y="30" width="1" height="1" fill="#EFBB8E"/>
<rect x="12" y="31" width="1" height="1" fill="#C97758"/>
<rect x="10" y="30" width="1" height="1" fill="#C87558"/>
<rect x="9" y="29" width="1" height="1" fill="#C46E4E"/>
<rect x="19" y="30" width="1" height="1" fill="#CA795B"/>
<rect x="18" y="30" width="1" height="1" fill="#CC8060"/>
<rect x="11" y="30" width="1" height="1" fill="#E6AD82"/>
<rect x="11" y="31" width="1" height="1" fill="#C47053"/>
<rect x="17" y="30" width="1" height="1" fill="#E7AD84"/>
<rect x="17" y="31" width="1" height="1" fill="#C67659"/>
<rect x="16" y="30" width="1" height="1" fill="#EFBD8E"/>
<rect x="16" y="31" width="1" height="1" fill="#C37153"/>
<rect x="15" y="30" width="1" height="1" fill="#EDBC8D"/>
<rect x="15" y="31" width="1" height="1" fill="#BD6B4D"/>
<rect x="9" y="25" width="1" height="1" fill="#EFC18F"/>
<rect x="19" y="25" width="1" height="1" fill="#EFC08F"/>
<rect x="18" y="25" width="1" height="1" fill="#EFC18F"/>
<rect x="14" y="26" width="1" height="1" fill="#E1A079"/>
<rect x="14" y="26" width="1" height="1" fill="#F3C293"/>
<rect x="13" y="26" width="1" height="1" fill="#DE9D77"/>
<rect x="13" y="26" width="1" height="1" fill="#F3C293"/>
<rect x="12" y="26" width="1" height="1" fill="#DA9C76"/>
<rect x="12" y="26" width="1" height="1" fill="#F3C293"/>
<rect x="10" y="26" width="1" height="1" fill="#CE825F"/>
<rect x="18" y="26" width="1" height="1" fill="#EFC18F"/>
<rect x="11" y="26" width="1" height="1" fill="#DE9F78"/>
<rect x="17" y="26" width="1" height="1" fill="#C87857"/>
<rect x="16" y="26" width="1" height="1" fill="#D48F68"/>
<rect x="15" y="26" width="1" height="1" fill="#DD9A73"/>
<rect x="15" y="26" width="1" height="1" fill="#F3C293"/>
<rect x="14" y="27" width="1" height="1" fill="#CE8262"/>
<rect x="13" y="27" width="1" height="1" fill="#CA7F5D"/>
<rect x="12" y="27" width="1" height="1" fill="#CB7F5D"/>
<rect x="11" y="27" width="1" height="1" fill="#BE6B4C"/>
<rect x="16" y="27" width="1" height="1" fill="#CC7E5F"/>
<rect x="15" y="27" width="1" height="1" fill="#D28763"/>
<rect x="8" y="1" width="1" height="1" fill="#E0AD53"/>
<rect x="8" y="2" width="1" height="1" fill="#EFCB79"/>
<rect x="8" y="3" width="1" height="1" fill="#EFCC7A"/>
<rect x="8" y="4" width="1" height="1" fill="#FFDE8E"/>
<rect x="8" y="5" width="1" height="1" fill="#E3B25B"/>
<rect x="8" y="6" width="1" height="1" fill="#EFCA79"/>
<rect x="8" y="7" width="1" height="1" fill="#ECCA78"/>
<rect x="8" y="8" width="1" height="1" fill="#ECC876"/>
<rect x="8" y="9" width="1" height="1" fill="#F0CD7B"/>
<rect x="8" y="10" width="1" height="1" fill="#FCD882"/>
<rect x="8" y="11" width="1" height="1" fill="#FCD882"/>
<rect x="8" y="12" width="1" height="1" fill="#C38440"/>
<rect x="8" y="13" width="1" height="1" fill="#ECBE85"/>
<rect x="8" y="14" width="1" height="1" fill="#B27237"/>
<rect x="8" y="15" width="1" height="1" fill="#5B655D"/>
<rect x="8" y="16" width="1" height="1" fill="#D78A62"/>
<rect x="8" y="17" width="1" height="1" fill="#682A0D"/>
<rect x="8" y="18" width="1" height="1" fill="#7A2F0C"/>
<rect x="8" y="19" width="1" height="1" fill="#893500"/>
<rect x="8" y="20" width="1" height="1" fill="#7E3D00"/>
<rect x="8" y="21" width="1" height="1" fill="#D08561"/>
<rect x="8" y="22" width="1" height="1" fill="#A33729"/>
<rect x="8" y="23" width="1" height="1" fill="#ECB989"/>
<rect x="8" y="24" width="1" height="1" fill="#EFC18F"/>
<rect x="8" y="25" width="1" height="1" fill="#EFC18F"/>
<rect x="8" y="26" width="1" height="1" fill="#EFC294"/>
<rect x="8" y="27" width="1" height="1" fill="#EDBC8D"/>
<rect x="8" y="28" width="1" height="1" fill="#EDBA8A"/>
<rect x="8" y="29" width="1" height="1" fill="#C97352"/>
</svg>
